<svg xmlns="http://www.w3.org/2000/svg" viewBox="0 0 100 100">
  <defs>
    <linearGradient id="g" x1="0" y1="0" x2="0" y2="1">
      <stop offset="0%" stop-color="#FFD700"/>
      <stop offset="100%" stop-color="#B8860B"/>
    </linearGradient>
  </defs>
  <!-- Cup body -->
  <path d="M30 20h40v30c0 16-10 26-20 28c-10-2-20-12-20-28z" fill="url(#g)" stroke="#9A7400" stroke-width="2"/>
  <!-- Left handle -->
  <path d="M30 28c-12 0-16 6-16 14s6 14 16 14" fill="none" stroke="url(#g)" stroke-width="5" stroke-linecap="round"/>
  <!-- Right handle -->
  <path d="M70 28c12 0 16 6 16 14s-6 14-16 14" fill="none" stroke="url(#g)" stroke-width="5" stroke-linecap="round"/>
  <!-- Stem -->
  <rect x="44" y="78" width="12" height="8" rx="1" fill="#B8860B"/>
  <!-- Base -->
  <rect x="32" y="86" width="36" height="6" rx="3" fill="url(#g)" stroke="#9A7400" stroke-width="1"/>
  <!-- Star -->
  <polygon points="50,30 53,39 62,39 55,44 57,53 50,48 43,53 45,44 38,39 47,39" fill="#FFF8DC" opacity="0.7"/>
</svg>
